<svg xmlns="http://www.w3.org/2000/svg" xmlns:xlink="http://www.w3.org/1999/xlink" viewBox="0 0 116.24 71.46"><defs><style>.cls-1{fill:#c3729d;opacity:0.5;}.cls-2{fill:url(#Dégradé_sans_nom_68);}</style><linearGradient id="Dégradé_sans_nom_68" x1="0.14" y1="34.39" x2="116.23" y2="34.39" gradientUnits="userSpaceOnUse"><stop offset="0" stop-color="#f2c8d5"/><stop offset="1" stop-color="#fff"/></linearGradient></defs><g id="Calque_2" data-name="Calque 2"><g id="Title"><path class="cls-1" d="M116.24,63.24s-.08.07-.25.15a152,152,0,0,1-25.19,5.9c-18.25,2.84-38.16,2.94-38.61,0-.4-2.64,16.66-7.48,15.9-9-.4-.79-5.24-.05-6.2.1C17.75,67.15,9.05,66.74,3.59,65A5,5,0,0,1,.32,62.69,3.74,3.74,0,0,1,.17,60a9.54,9.54,0,0,1,1.5-2.92c4.82-6.63,23.11-13,38.75-15,14.51-1.85,28.72-1.16,28.41,4.32-.21,3.61-6.6,5.9-11.64,6.77-6.9,1.19-17.93,1.44-18.18,0s6.22-3,5.68-3.86c-.71-1.1-13.23-.21-20.9,3.29-4.67,2.12-8,5.4-5.87,7.21,3.94,3.41,26,.52,43.72-1.82,18.67-2.46,29.72-4.94,30.72-3.87,1.56,1.67-28.32,10-27.49,13.26.78,3,26,.14,27.44,0,12.76-1.5,22.09-3.89,23.69-4.13C116.15,63.22,116.24,63.22,116.24,63.24Z"/><path class="cls-2" d="M116.23,58.05c0,1.75-.08,3.48-.23,5.19-1.6.24-10.93,2.63-23.69,4.13-1.46.18-26.66,3.07-27.44,0C64,64.14,93.92,55.82,92.36,54.15c-1-1.07-12,1.41-30.72,3.87-17.76,2.34-39.78,5.23-43.72,1.82-2.09-1.81,1.2-5.09,5.87-7.21,7.67-3.5,20.19-4.39,20.9-3.29.54.84-5.92,2.54-5.68,3.86s11.28,1.18,18.18,0c5-.87,11.43-3.16,11.64-6.77.31-5.48-13.9-6.17-28.41-4.32-15.64,2-33.93,8.39-38.75,15A9.54,9.54,0,0,0,.17,60c0-.66,0-1.32,0-2a58,58,0,1,1,116.09,0Z"/></g></g></svg>