<svg xmlns="http://www.w3.org/2000/svg" xmlns:xlink="http://www.w3.org/1999/xlink" viewBox="0 0 66.93 41.14"><defs><style>.cls-1{fill:#c3729d;opacity:0.5;}.cls-2{fill:url(#Dégradé_sans_nom_68);}</style><linearGradient id="Dégradé_sans_nom_68" x1="0.08" y1="19.8" x2="66.92" y2="19.8" gradientUnits="userSpaceOnUse"><stop offset="0" stop-color="#f2c8d5"/><stop offset="1" stop-color="#fff"/></linearGradient></defs><g id="Calque_2" data-name="Calque 2"><g id="Title"><path class="cls-1" d="M66.93,36.41s0,0-.15.09a88.06,88.06,0,0,1-14.5,3.4c-10.51,1.63-22,1.69-22.23,0-.23-1.52,9.59-4.31,9.15-5.19-.22-.46-3,0-3.57.06C10.22,38.66,5.21,38.43,2.07,37.45A2.88,2.88,0,0,1,.18,36.09,2.16,2.16,0,0,1,.1,34.57,5.44,5.44,0,0,1,1,32.89c2.78-3.82,13.31-7.5,22.31-8.65,8.36-1.07,16.54-.67,16.36,2.49-.12,2.08-3.8,3.4-6.7,3.9-4,.68-10.33.82-10.47,0S26,28.9,25.73,28.41s-7.61-.12-12,1.89c-2.69,1.22-4.58,3.11-3.38,4.15,2.27,2,15,.3,25.17-1C46.24,32,52.61,30.56,53.18,31.18c.9,1-16.31,5.75-15.83,7.64s15,.07,15.8,0c7.35-.86,12.72-2.24,13.64-2.37C66.88,36.4,66.93,36.4,66.93,36.41Z"/><path class="cls-2" d="M66.92,33.42c0,1,0,2-.13,3-.92.13-6.29,1.51-13.64,2.37-.84.1-15.35,1.77-15.8,0s16.73-6.68,15.83-7.64c-.57-.62-6.94.81-17.69,2.23-10.22,1.34-22.9,3-25.17,1-1.2-1,.69-2.93,3.38-4.15,4.42-2,11.62-2.52,12-1.89s-3.41,1.46-3.27,2.22,6.49.68,10.47,0c2.9-.5,6.58-1.82,6.7-3.9.18-3.16-8-3.56-16.36-2.49-9,1.15-19.53,4.83-22.31,8.65A5.44,5.44,0,0,0,.1,34.57c0-.38,0-.76,0-1.15a33.42,33.42,0,0,1,66.84,0Z"/></g></g></svg>